<?xml version="1.0" encoding="utf-8"?>
<!-- Generator: Adobe Illustrator 21.1.0, SVG Export Plug-In . SVG Version: 6.00 Build 0)  -->
<svg version="1.1" id="Layer_1" xmlns="http://www.w3.org/2000/svg" xmlns:xlink="http://www.w3.org/1999/xlink" x="0px" y="0px"
	 viewBox="0 0 90 112.5" style="enable-background:new 0 0 90 112.5;" xml:space="preserve">
<style type="text/css">
	.st0{fill:none;stroke:#000000;stroke-width:3;stroke-linecap:round;stroke-linejoin:round;stroke-miterlimit:10;}
	.st1{fill:#FFFFFF;stroke:#000000;stroke-width:3;stroke-linecap:round;stroke-linejoin:round;stroke-miterlimit:10;}
	.st2{fill:#FFFFFF;stroke:#2E3192;stroke-width:3;stroke-miterlimit:10;}
	.st3{fill:#FFFFFF;stroke:#00AEEF;stroke-width:3;stroke-miterlimit:10;}
	.st4{fill:#00AEEF;}
	.st5{fill:none;stroke:#FF0200;stroke-width:3;stroke-miterlimit:10;}
	.st6{fill:#FFFFFF;stroke:#006838;stroke-width:3;stroke-miterlimit:10;}
	.st7{fill:none;stroke:#2E3192;stroke-width:3;stroke-miterlimit:10;}
	.st8{fill:none;stroke:#2E3192;stroke-width:3;stroke-linecap:square;stroke-miterlimit:10;}
	.st9{fill:#FFFF00;}
	.st10{fill:none;stroke:#FF8296;stroke-width:3;stroke-miterlimit:10;}
	.st11{fill:none;stroke:#000000;stroke-width:3;stroke-miterlimit:10;}
	.st12{fill:none;stroke:#006838;stroke-width:3;stroke-miterlimit:10;}
	.st13{fill:none;stroke:#FF0200;stroke-width:3;stroke-linecap:round;stroke-miterlimit:10;}
	.st14{fill:none;stroke:#FF0200;stroke-width:3;stroke-linecap:square;stroke-miterlimit:10;}
	.st15{fill:#FFFFFF;stroke:#FF8296;stroke-width:3;stroke-miterlimit:10;}
	.st16{fill:#FF8296;}
	.st17{fill:#2E3192;}
	.st18{fill:none;stroke:#00AEEF;stroke-width:3;stroke-miterlimit:10;}
	.st19{fill:none;}
	
		.st20{clip-path:url(#SVGID_2_);fill:none;stroke:#000000;stroke-width:3;stroke-linecap:round;stroke-linejoin:round;stroke-miterlimit:10;}
	.st21{fill:none;stroke:#000000;stroke-width:3;stroke-linejoin:round;stroke-miterlimit:10;}
	.st22{fill:#FFFFFF;stroke:#000000;stroke-width:3;stroke-linejoin:round;stroke-miterlimit:10;}
	.st23{fill:none;stroke:#000000;stroke-width:3;stroke-linecap:square;stroke-linejoin:round;stroke-miterlimit:10;}
</style>
<path class="st22" d="M67.5,47.8c3.1,0,5.6,2.5,5.6,5.6v8.4c0,3.1-2.5,5.6-5.6,5.6"/>
<path class="st22" d="M22.5,67.5c-3.1,0-5.6-2.5-5.6-5.6v-8.4c0-3.1,2.5-5.6,5.6-5.6"/>
<path class="st21" d="M22.5,42.2c0-12.4,10.1-22.5,22.5-22.5s22.5,10.1,22.5,22.5l0,19.7c0,12.4-10.1,22.5-22.5,22.5
	S22.5,74.3,22.5,61.9L22.5,42.2z"/>
<path class="st22" d="M39.4,50.6c0,3.1-2.5,5.6-5.6,5.6s-5.6-2.5-5.6-5.6"/>
<path class="st22" d="M61.9,50.6c0,3.1-2.5,5.6-5.6,5.6s-5.6-2.5-5.6-5.6"/>
<path class="st23" d="M45,45v16.9"/>
<path class="st21" d="M22.5,22.5c0-6.2,5-11.2,11.2-11.2l25.3,0c4.7,0,8.4-3.8,8.4-8.4"/>
<g>
	<path class="st21" d="M73.1,8.4v8.4v2.8c0,1.6-1.3,2.8-2.8,2.8s-2.8-1.3-2.8-2.8s1.3-2.8,2.8-2.8h2.8h8.4"/>
</g>
<path class="st11" d="M81.6,22.5c0,0,0,5.6,0,5.6c0,6.2-5,11.2-11.2,11.2"/>
<path class="st21" d="M19.7,45c-3.1,0-5.6-2.5-5.6-5.6c0,0,0-5.6,0-5.6l0,2.8v-5.6c0-3.1,2.5-5.6,5.6-5.6"/>
<path class="st11" d="M81.6,106.9L59.1,95.6V78.8"/>
<path class="st11" d="M30.9,78.8v16.9L8.4,106.9"/>
<line class="st23" x1="50.6" y1="45" x2="61.9" y2="45"/>
<line class="st23" x1="28.1" y1="45" x2="39.4" y2="45"/>
</svg>
